<?xml version="1.0" encoding="iso-8859-1"?>
<!-- Generator: Adobe Illustrator 19.1.0, SVG Export Plug-In . SVG Version: 6.00 Build 0)  -->
<svg version="1.1" id="Layer_1" xmlns="http://www.w3.org/2000/svg" xmlns:xlink="http://www.w3.org/1999/xlink" x="0px" y="0px"
	 viewBox="0 0 129.254 55.93" style="enable-background:new 0 0 129.254 55.93;" xml:space="preserve">
<rect x="0" y="0" style="fill:#FFFFFF;" width="129.254" height="55.93"/>
<polygon style="fill:#000222;" points="36.931,46.354 36.931,9.575 40.871,9.575 50.066,32.316 50.066,9.575 55.32,9.575 
	55.32,46.354 51.585,46.354 42.185,21.89 42.185,46.354 "/>
<polygon style="fill:#000222;" points="60.574,46.354 60.574,9.575 75.023,9.575 75.023,13.516 65.828,13.516 65.828,25.338 
	72.396,25.338 72.396,29.278 65.828,29.278 65.828,46.354 "/>
<polygon style="fill:#000222;" points="77.424,46.354 77.424,9.575 91.874,9.575 91.874,13.516 82.678,13.516 82.678,25.338 
	89.247,25.338 89.247,29.278 82.678,29.278 82.678,46.354 "/>
</svg>
