<?xml version="1.0" encoding="iso-8859-1"?>
<!-- Generator: Adobe Illustrator 19.1.0, SVG Export Plug-In . SVG Version: 6.00 Build 0)  -->
<svg version="1.1" id="Layer_1" xmlns="http://www.w3.org/2000/svg" xmlns:xlink="http://www.w3.org/1999/xlink" x="0px" y="0px"
	 viewBox="0 0 2168 612" style="enable-background:new 0 0 2168 612;" xml:space="preserve">
<g>
	<rect x="-135.145" y="-11" style="fill:#0099CC;" width="2438.289" height="634"/>
	<path style="fill:#FFFFFF;" d="M1154.67,134.169l-211.666-0.167v343h271v-283L1154.67,134.169z M1049.197,250.75
		c0.193-15.155,12.038-27.439,27.751-28.443c13.45-0.86,26.987,7.973,30.193,23.739c0.403,1.982,0.519,4.051,0.525,6.081
		c0.044,13.804-0.044,27.609,0.078,41.413c0.026,2.893-0.76,3.859-3.783,3.784c-8.55-0.213-17.108-0.074-25.663-0.075
		c-8.652,0-17.305-0.067-25.956,0.044c-2.34,0.03-3.251-0.598-3.235-3.089C1049.205,279.72,1049.012,265.233,1049.197,250.75z
		 M1095.846,336.9c-17.386,13.088-43.037,2.563-46.156-18.996c-0.456-3.151-0.302-6.387-0.555-9.573
		c-0.177-2.22,0.753-2.807,2.877-2.783c8.848,0.099,17.697,0.042,26.546,0.042c8.752,0,17.503,0.002,26.255-0.002
		c1.375-0.001,2.738-0.204,2.866,1.884C1108.398,319.169,1105.714,329.472,1095.846,336.9z M1091.306,361.979
		c-0.374,0.104-0.758,0.168-1.133,0.269c-3.957,1.066-5.139,2.869-3.905,6.804c0.274,0.875,1.97,1.415,3.103,1.89
		c4.708,1.973,9.782,3.326,14.067,5.969c2.842,1.753,4.682,5.23,6.733,8.104c0.632,0.886,0.482,2.329,0.729,3.738
		c-21.779,0-43.125,0-64.574,0c-0.547-3.688,1.143-6.373,3.328-8.767c4.728-5.18,10.948-7.547,17.605-8.995
		c3.09-0.672,4.923-4.35,3.288-7.11c-0.425-0.717-1.763-1.004-2.742-1.265c-19.382-5.171-32.595-16.745-37.568-36.6
		c-0.906-3.614-0.858-7.504-0.953-11.274c-0.081-3.222,2.405-5.81,5.452-6.185c3.483-0.428,6.494,1.476,7.151,4.93
		c0.54,2.843,0.294,5.846,0.925,8.659c3.311,14.764,12.897,23.582,27.148,27.432c18.316,4.949,38.771-6.979,43.556-25.242
		c0.727-2.775,0.833-5.74,0.994-8.631c0.249-4.488,2.685-7.218,6.688-7.195c3.962,0.022,6.499,2.864,6.529,7.315
		C1127.871,337.125,1113.01,355.96,1091.306,361.979z"/>
	<polygon style="fill:#0066CC;" points="1214.004,193.834 1154.67,134.002 1154.67,194.002 	"/>
	<polygon style="opacity:0.5;fill:#0099CC;" points="1154.836,193.919 1214.17,253.752 1214.17,193.752 	"/>
</g>
</svg>
